<?xml version="1.0" encoding="utf-8"?><!-- Uploaded to: SVG Repo, www.svgrepo.com, Generator: SVG Repo Mixer Tools -->
<svg width="800px" height="800px" viewBox="0 0 24 24" fill="none" xmlns="http://www.w3.org/2000/svg">
<path d="M12 14V12M12 14V16M12 14C8 14 4 13 4.06127 11M12 14C16 14 20 13 19.9387 11M4.06127 11C4.02207 11.633 4 12.3069 4 13C4 16.1111 4.44444 18.8333 4.88889 19.2222C5.33333 19.6111 8.44444 20 12 20C15.5556 20 18.6667 19.6111 19.1111 19.2222C19.5556 18.8333 20 16.1111 20 13C20 12.3069 19.9779 11.633 19.9387 11M4.06127 11C4.19804 8.79172 4.54346 7.08002 4.88889 6.77778C5.33333 6.38889 9 6.09322 9 6.09322M19.9387 11C19.802 8.79172 19.4565 7.08002 19.1111 6.77778C18.6667 6.38889 15 6.09322 15 6.09322M9 6.09322C9.92143 6.0345 10.941 6 12 6C13.059 6 14.0786 6.0345 15 6.09322M9 6.09322V5C9 3.22496 10.6373 3 12 3C13.3627 3 15 3.22496 15 5V6.09322" stroke="#7E74F1" stroke-width="1.5" stroke-linecap="round" stroke-linejoin="round"/>
</svg>
