<svg width="32" height="32" viewBox="0 0 32 32" fill="none" xmlns="http://www.w3.org/2000/svg">
<g clip-path="url(#clip0_21_5365)">
<path d="M15.9999 0C24.837 0 32 7.164 32 16.0001C32 24.8361 24.837 32 15.9999 32C7.1629 32 0 24.836 0 16.0001C0 7.16411 7.16301 0 15.9999 0Z" fill="white" fill-opacity="0.5"/>
<path d="M9.01604 21.984H12.0121V11.998H9.01604V21.984ZM20.6881 11.6521C19.2341 11.6521 17.9331 12.183 17.0101 13.3551V11.9651H14.0031V21.9841H17.0101V16.5661C17.0101 15.4211 18.0592 14.304 19.3731 14.304C20.6871 14.304 21.0111 15.4211 21.0111 16.5381V21.9831H24.0072V16.3151C24.0071 12.378 22.1431 11.6521 20.6881 11.6521ZM10.5 11C11.3281 11 12.0001 10.328 12.0001 9.49997C12.0001 8.67195 11.3281 8.00003 10.5 8.00003C9.67203 8.00003 9 8.67206 9 9.50008C9 10.3281 9.67203 11 10.5 11Z" fill="#090E16"/>
</g>
<defs>
<clipPath id="clip0_21_5365">
<rect width="32" height="32" fill="white"/>
</clipPath>
</defs>
</svg>
