<svg width="64" height="64" viewBox="0 0 64 64" fill="none" xmlns="http://www.w3.org/2000/svg">
<path d="M10 14H54V44C54 44.5304 53.7893 45.0391 53.4142 45.4142C53.0391 45.7893 52.5304 46 52 46H42C41.4696 46 40.9609 45.7893 40.5858 45.4142C40.2107 45.0391 40 44.5304 40 44V38H24V52C24 52.5304 23.7893 53.0391 23.4142 53.4142C23.0391 53.7893 22.5304 54 22 54H12C11.4696 54 10.9609 53.7893 10.5858 53.4142C10.2107 53.0391 10 52.5304 10 52V14Z" stroke="#7B4AE2" stroke-linecap="round" stroke-linejoin="round"/>
<path d="M24 30H10" stroke="#7B4AE2" stroke-linecap="round" stroke-linejoin="round"/>
<path d="M24 14V38" stroke="#7B4AE2" stroke-linecap="round" stroke-linejoin="round"/>
<path d="M40 30H54" stroke="#7B4AE2" stroke-linecap="round" stroke-linejoin="round"/>
<path d="M40 14V38" stroke="#7B4AE2" stroke-linecap="round" stroke-linejoin="round"/>
<g filter="url(#filter0_d_21_5470)">
<circle cx="32" cy="34" r="20" fill="#7B4AE2" fill-opacity="0.2" shape-rendering="crispEdges"/>
</g>
<defs>
<filter id="filter0_d_21_5470" x="8" y="14" width="48" height="48" filterUnits="userSpaceOnUse" color-interpolation-filters="sRGB">
<feFlood flood-opacity="0" result="BackgroundImageFix"/>
<feColorMatrix in="SourceAlpha" type="matrix" values="0 0 0 0 0 0 0 0 0 0 0 0 0 0 0 0 0 0 127 0" result="hardAlpha"/>
<feOffset dy="4"/>
<feGaussianBlur stdDeviation="2"/>
<feComposite in2="hardAlpha" operator="out"/>
<feColorMatrix type="matrix" values="0 0 0 0 0 0 0 0 0 0 0 0 0 0 0 0 0 0 0.25 0"/>
<feBlend mode="normal" in2="BackgroundImageFix" result="effect1_dropShadow_21_5470"/>
<feBlend mode="normal" in="SourceGraphic" in2="effect1_dropShadow_21_5470" result="shape"/>
</filter>
</defs>
</svg>
