<svg width="20" height="20" viewBox="0 0 20 20" fill="none" xmlns="http://www.w3.org/2000/svg">
<path d="M3.54684 13.8281C2.61628 12.2581 2.29079 10.4025 2.63146 8.60949C2.97213 6.81652 3.95553 5.20954 5.39706 4.09025C6.83859 2.97096 8.6391 2.41633 10.4606 2.53049C12.2821 2.64464 13.9992 3.41972 15.2897 4.71023C16.5802 6.00073 17.3553 7.71791 17.4695 9.53939C17.5836 11.3609 17.029 13.1614 15.9097 14.6029C14.7904 16.0444 13.1834 17.0278 11.3905 17.3685C9.5975 17.7092 7.74183 17.3837 6.17184 16.4531V16.4531L3.57809 17.1875C3.47182 17.2186 3.35915 17.2205 3.25189 17.1931C3.14462 17.1656 3.04671 17.1098 2.96842 17.0315C2.89013 16.9533 2.83434 16.8553 2.8069 16.7481C2.77946 16.6408 2.78139 16.5281 2.81247 16.4219L3.54684 13.8281Z" stroke="#7B4AE2" stroke-opacity="0.5" stroke-linecap="round" stroke-linejoin="round"/>
<path d="M11.8828 14.375C11.0605 14.3771 10.2458 14.2166 9.48563 13.9029C8.72547 13.5891 8.0348 13.1282 7.45329 12.5467C6.87179 11.9652 6.41092 11.2745 6.09717 10.5144C5.78341 9.75422 5.62296 8.93956 5.62502 8.11719C5.62709 7.53838 5.85847 6.98399 6.26848 6.57544C6.67849 6.16689 7.23371 5.9375 7.81252 5.9375V5.9375C7.90802 5.93674 8.00195 5.96173 8.08444 6.00985C8.16693 6.05797 8.23493 6.12744 8.28127 6.21094L9.19533 7.80469C9.24969 7.90157 9.27759 8.01106 9.27621 8.12214C9.27484 8.23323 9.24425 8.34199 9.18752 8.4375L8.45314 9.66406C8.8293 10.5009 9.49917 11.1707 10.336 11.5469L11.5625 10.8125C11.658 10.7558 11.7668 10.7252 11.8779 10.7238C11.989 10.7224 12.0984 10.7503 12.1953 10.8047L13.7891 11.7188C13.8726 11.7651 13.942 11.8331 13.9902 11.9156C14.0383 11.9981 14.0633 12.092 14.0625 12.1875C14.0605 12.7657 13.8304 13.3197 13.4223 13.7293C13.0142 14.1389 12.461 14.3709 11.8828 14.375V14.375Z" stroke="#7B4AE2" stroke-opacity="0.5" stroke-linecap="round" stroke-linejoin="round"/>
</svg>