<svg width="64px" height="64px" viewBox="0 0 24 24" fill="none" xmlns="http://www.w3.org/2000/svg"><g id="SVGRepo_bgCarrier" stroke-width="0"></g><g id="SVGRepo_tracerCarrier" stroke-linecap="round" stroke-linejoin="round"></g><g id="SVGRepo_iconCarrier"> <path d="M10.0576 6H20.9424M10.0576 6C10.021 6.46774 10 6.97527 10 7.5V9M10.0576 6C10.1603 4.68497 10.3857 3.68441 10.6111 3.5C10.9167 3.25 13.0556 3 15.5 3C17.9444 3 20.0833 3.25 20.3889 3.5C20.6143 3.68441 20.8397 4.68497 20.9424 6M20.9424 6C20.979 6.46774 21 6.97527 21 7.5C21 8.94595 20.8403 10.2612 20.6363 10.9735C20.5306 11.3428 20.1854 11.5206 19.8055 11.5776C18.9164 11.7111 18.1325 11.8864 16.8568 11.9623L16.8612 12M10 9C6.88889 9 4.16667 9.30556 3.77778 9.61111C3.5321 9.80414 3.28642 10.7288 3.13879 12M10 9C13.1111 9 15.8333 9.30556 16.2222 9.61111C16.4679 9.80414 16.7136 10.7288 16.8612 12M16.8612 12C16.9473 12.741 17 13.5998 17 14.5C17 16.9444 16.6111 19.0833 16.2222 19.3889C15.8333 19.6944 13.1111 20 10 20C6.88889 20 4.16667 19.6944 3.77778 19.3889C3.38889 19.0833 3 16.9444 3 14.5C3 13.5998 3.05273 12.741 3.13879 12M16.8612 12H3.13879" stroke="#F97316" stroke-width="1.5" stroke-linecap="round" stroke-linejoin="round"></path> </g></svg>